<svg enable-background="new 0 0 16 16" viewBox="0 0 16 16" xmlns="http://www.w3.org/2000/svg"><g clip-rule="evenodd" fill="#3d4142" fill-rule="evenodd"><path d="m12.7 1.5c-1.3-.9-2.9-1.5-4.7-1.5-4.4 0-8 3.6-8 8 0 .3 0 .7.1 1-.1.2-.1.3-.1.5v4c0 .2 0 .4.1.6l.9-.9v-3.7c0-.3.2-.5.5-.5h2c.3 0 .5.2.5.5v.7l1-1c-.1-.6-.8-1.2-1.5-1.2h-2c-.2 0-.3 0-.5.1v-.1c0-3.9 3.1-7 7-7 1.5 0 2.9.5 4 1.3zm-7.9 11.5-2 2h.7c.8 0 1.5-.7 1.5-1.5v-.7zm11.1-4c.1-.3.1-.7.1-1 0-1.8-.6-3.4-1.5-4.7l-.8.7c.8 1.1 1.3 2.5 1.3 4v.1c-.2-.1-.3-.1-.5-.1h-2c-.8 0-1.5.7-1.5 1.5v4c0 .8.7 1.5 1.5 1.5h2c.8 0 1.5-.7 1.5-1.5v-4c0-.2 0-.3-.1-.5zm-.9 4.5c0 .3-.2.5-.5.5h-2c-.3 0-.5-.2-.5-.5v-4c0-.3.2-.5.5-.5h2c.3 0 .5.2.5.5z"/><path d="m16.1.6-11.5 11.5-4 4-.7-.7 4-4 7.5-7.5 4-4z"/><path d="m11.4 3.9-7.5 7.5z"/></g></svg>