<svg enable-background="new 0 0 16 16" viewBox="0 0 16 16" xmlns="http://www.w3.org/2000/svg"><g fill="#3d4142"><path d="m5.5 8.2v-4.7c0-1.4 1.1-2.5 2.5-2.5 1.3 0 2.4 1 2.5 2.3l.8-.8c-.4-1.5-1.7-2.5-3.3-2.5-1.9 0-3.5 1.6-3.5 3.5v5c0 .2 0 .5.1.7zm5 .3c0 1.4-1.1 2.5-2.5 2.5-.5 0-1-.1-1.3-.4l-.7.7c.5.4 1.2.7 2 .7 1.9 0 3.5-1.6 3.5-3.5v-2.7l-1 1zm2-.5v1c0 2.2-1.8 4-4 4h-1c-.9 0-1.7-.3-2.4-.8l-.7.7c.8.7 1.9 1.1 3.1 1.1v1h-.5c-.3 0-.5.2-.5.5s.2.5.5.5h2c.3 0 .5-.2.5-.5s-.2-.5-.5-.5h-.5v-1c2.8 0 5-2.2 5-5v-1zm-9 0h-1v1c0 .7.1 1.3.4 1.9l.8-.8c-.1-.4-.2-.7-.2-1.1z"/><path d="m15.9.7-3.7 3.7-7.8 7.8-3.7 3.7-.8-.7 15.3-15.3z"/></g></svg>